# xmcd CD database file
#
# Track frame offsets:
#	150
#	3593
#	19496
#	34123
#	49107
#	87271
#	97379
#	128821
#	161334
#	183800
#	216329
#	230474
#	254171
#
# Disc length: 3894 seconds
#
# Revision: 0
# Processed by: cddbd v1.5.1PL2 Copyright (c) Steve Scherf et al.
# Submitted via: CDex 1.50
#
DISCID=b40f340d
DTITLE=Carol Heuchan - A Pocketful Of Poetry
DYEAR=2005
DGENRE=Country
TTITLE0=Introduction
TTITLE1=Blokes
TTITLE2=Charlotte Brown
TTITLE3=Dunedoo
TTITLE4=Rosie
TTITLE5=Hats Off
TTITLE6=The Tractor Factor
TTITLE7=Mark Of Courage
TTITLE8=Cruising
TTITLE9=O'Reilly's Milking Cow
TTITLE10=Simply Isn't Country Anymore
TTITLE11=The Pitcher Show
TTITLE12=The Pocket Sized Edition
EXTD=YEAR: 2005
EXTT0=
EXTT1=
EXTT2=
EXTT3=
EXTT4=
EXTT5=
EXTT6=
EXTT7=
EXTT8=
EXTT9=
EXTT10=
EXTT11=
EXTT12=
PLAYORDER=
